Coordinates
version=1
nRows=16
nColumns=38
inDegrees=no

Units are S.I. units (second, meters, Newtons, ...)
If the header above contains a line with 'inDegrees', this indicates whether rotational values are in degrees (yes) or radians (no).

endheader
time	pelvis_tilt	pelvis_list	pelvis_rotation	pelvis_tx	pelvis_ty	pelvis_tz	hip_flexion_r	hip_adduction_r	hip_rotation_r	knee_angle_r	ankle_angle_r	subtalar_angle_r	mtp_angle_r	hip_flexion_l	hip_adduction_l	hip_rotation_l	knee_angle_l	ankle_angle_l	subtalar_angle_l	mtp_angle_l	lumbar_extension	lumbar_bending	lumbar_rotation	arm_flex_r	arm_add_r	arm_rot_r	elbow_flex_r	pro_sup_r	wrist_flex_r	wrist_dev_r	arm_flex_l	arm_add_l	arm_rot_l	elbow_flex_l	pro_sup_l	wrist_flex_l	wrist_dev_l
0	0.825715	1.48645	-2.26286	0.693327	1.89936	0.937886	-0.0855818	-0.102467	-0.0470134	0.103169	0.108256	0	0	-0.0612628	0.0595247	-0.156311	0.0317801	0.0083685	0	0	-0.202456	-0.0609724	-0.0837808	-0.0512632	-0.251989	0.448404	0.576772	1.42629	0	0	0.0593113	-0.456582	0.241441	0.786711	1.39493	0	0
0.01	0.792306	1.5143	-2.22445	0.694566	1.89954	0.933823	-0.0345494	-0.0883758	-0.0995011	0.164618	0.144658	0	0	-0.00405012	0.0406431	-0.171044	0.0934008	0.043881	0	0	-0.180234	-0.0359705	-0.0856129	-0.0396884	-0.232531	0.372039	0.53073	1.51652	0	0	0.0596117	-0.451892	0.250363	0.787163	1.39258	0	0
0.02	0.436444	1.52695	-1.85884	0.69611	1.89989	0.932617	-0.0354041	-0.0645915	-0.106118	0.158843	0.138962	0	0	0.00815379	0.0163668	-0.163379	0.110468	0.0610269	0	0	-0.178899	-0.00901063	-0.0930543	-0.0394658	-0.240562	0.368923	0.543647	1.52115	0	0	0.062621	-0.447773	0.258411	0.787118	1.39293	0	0
0.03	0.724259	1.48447	-2.15491	0.694717	1.89932	0.938236	-0.0708949	-0.102343	-0.103813	0.151846	0.135166	0	0	-0.0358888	0.0478999	-0.184765	0.0999261	0.046573	0	0	-0.216116	-0.0504078	-0.0933675	-0.0276189	-0.22459	0.351298	0.527702	1.53816	0	0	0.0703548	-0.455392	0.265279	0.78232	1.39746	0	0
0.04	0.733084	1.48228	-2.16485	0.694749	1.89881	0.938507	-0.0738916	-0.104449	-0.102509	0.149764	0.134391	0	0	-0.0367524	0.0493525	-0.186778	0.103048	0.0472959	0	0	-0.218425	-0.0526151	-0.0944664	-0.0245481	-0.223691	0.351326	0.526498	1.54323	0	0	0.0709169	-0.455395	0.270938	0.780065	1.40053	0	0
0.05	0.456812	1.52809	-1.88141	0.696543	1.89855	0.932412	-0.0376109	-0.0655272	-0.101973	0.154311	0.137598	0	0	0.0145385	0.0163137	-0.168574	0.12397	0.0668949	0	0	-0.179697	-0.00921297	-0.0957968	-0.0323963	-0.239707	0.362065	0.544148	1.55761	0	0	0.0646572	-0.446833	0.278279	0.780601	1.40669	0	0
0.06	0.489937	1.52873	-1.9134	0.696794	1.89824	0.932478	-0.0374663	-0.0667197	-0.102451	0.153505	0.13667	0	0	0.0180267	0.017357	-0.167662	0.129033	0.0671461	0	0	-0.184485	-0.00373575	-0.0864114	-0.0435103	-0.241247	0.327839	0.566998	1.56064	0	0	0.078827	-0.438881	0.290759	0.765663	1.41751	0	0
0.07	0.49988	1.52921	-1.92289	0.697199	1.89762	0.932395	-0.0384801	-0.0670997	-0.102891	0.15191	0.135778	0	0	0.0199252	0.017752	-0.167304	0.132774	0.0680153	0	0	-0.1844	-0.00346623	-0.0881487	-0.0421624	-0.241199	0.31969	0.571499	1.55794	0	0	0.0773869	-0.436496	0.292151	0.763185	1.42582	0	0
0.08	0.64903	1.50983	-2.07742	0.697414	1.89652	0.934677	-0.0563684	-0.0849294	-0.102641	0.148334	0.134552	0	0	-0.0225406	0.0352025	-0.15931	0.0864406	0.0433148	0	0	-0.196411	-0.0264281	-0.0992908	-0.0239577	-0.236508	0.3451	0.552981	1.53832	0	0	0.0628365	-0.441309	0.281108	0.770991	1.43514	0	0
0.09	0.652483	1.51025	-2.0817	0.697606	1.89592	0.934562	-0.056696	-0.0851766	-0.102191	0.147601	0.133322	0	0	-0.0203517	0.0354744	-0.159909	0.0906201	0.0436118	0	0	-0.196822	-0.0260865	-0.0997257	-0.0218693	-0.237456	0.345719	0.556287	1.53647	0	0	0.0604102	-0.438791	0.282342	0.768976	1.43859	0	0
0.1	0.858363	1.4936	-2.3225	0.694315	1.89599	0.935921	-0.0478227	-0.110139	-0.0638209	0.161169	0.136811	0	0	-0.0318762	0.060197	-0.192793	0.0794077	0.0269514	0	0	-0.205715	-0.0549021	-0.0705527	-0.0143396	-0.234293	0.345776	0.55382	1.5393	0	0	0.0628403	-0.436939	0.281923	0.76306	1.44848	0	0
0.11	0.655899	1.51032	-2.08741	0.69793	1.89471	0.934438	-0.057952	-0.0857663	-0.100662	0.146163	0.129632	0	0	-0.0177326	0.0360276	-0.162441	0.097656	0.0439671	0	0	-0.198471	-0.0261493	-0.0992662	-0.0180452	-0.239111	0.345528	0.563364	1.53984	0	0	0.0554668	-0.433298	0.283992	0.76316	1.45345	0	0
0.12	0.919002	1.49417	-2.36136	0.696879	1.89315	0.935449	-0.0580399	-0.113181	-0.0949227	0.149442	0.133621	0	0	-0.0273003	0.0636775	-0.16986	0.0852183	0.0272178	0	0	-0.199419	-0.0556343	-0.0937417	-0.0157213	-0.23049	0.335787	0.556414	1.54111	0	0	0.0506967	-0.434375	0.283319	0.75826	1.46035	0	0
0.13	0.362492	1.52955	-1.81126	0.696923	1.89525	0.932218	-0.0355322	-0.0628781	-0.0719492	0.154797	0.121544	0	0	0.0233374	0.012453	-0.191907	0.150194	0.0707018	0	0	-0.190541	-0.0039475	-0.0798942	-0.0133506	-0.249956	0.348049	0.580832	1.53688	0	0	0.0530846	-0.421398	0.285849	0.755914	1.46223	0	0
0.14	0.531963	1.53059	-1.96389	0.698394	1.89324	0.931869	-0.0409483	-0.0692638	-0.0969086	0.148098	0.121839	0	0	0.0260302	0.0201438	-0.173526	0.150452	0.0686813	0	0	-0.188558	-0.00396416	-0.0866354	-0.0280498	-0.246284	0.314659	0.594966	1.54534	0	0	0.0571061	-0.416548	0.29515	0.743089	1.46809	0	0
0.15	0.402023	1.53004	-1.85473	0.696966	1.89416	0.932296	-0.0336377	-0.0645988	-0.0694417	0.156557	0.116027	0	0	0.0232582	0.0145497	-0.194644	0.150954	0.0694211	0	0	-0.197149	-0.000274013	-0.0656579	-0.0211541	-0.250075	0.308554	0.600442	1.5467	0	0	0.0600014	-0.408958	0.294908	0.736241	1.47107	0	0
